<svg xmlns="http://www.w3.org/2000/svg" width="46.274" height="62.307" viewBox="0 0 46.274 62.307"><g transform="translate(-270.515 -354.389)" opacity="0.8"><path d="M300.857,369.893c3.583.079-.938,5.494-1.075,5.7a58.426,58.426,0,0,0-3.056,5.145,68.437,68.437,0,0,0-4.012,8.221c-1.274,3.426-.929,8.612,3.968,8.129,1.109-.11,1.12-1.859,0-1.748-6.336.625.529-11.807,1.553-13.72,1.687-3.151,3.879-5.724,5.753-8.722s.312-4.673-3.131-4.749a.875.875,0,0,0,0,1.748Z" fill="#fff"/><path d="M308.34,400.666c4.127-2.129,8.543-7.48,3.359-11.163v1.509c3.764-1.944,4.779-6.878,5.04-10.769a23.164,23.164,0,0,0-4.56-15.252c-.655-.9-2.173-.03-1.509.882A21.751,21.751,0,0,1,315,377.5c.234,3.877-.247,9.973-4.186,12.007a.884.884,0,0,0,0,1.509c4.159,2.955-.768,6.808-3.359,8.145-1,.516-.117,2.024.882,1.509Z" fill="#fff"/><path d="M287.381,402.485c.92-.665,2.234-1.577,3.43-1.481.971.078,1.128.745,1.858,1.032,1.471.579,3.733-1.966,4.33.512.263,1.093,1.949.63,1.685-.465a3.105,3.105,0,0,0-1.943-2.293c-1.223-.478-1.726.185-2.82.326s-.749-.16-1.629-.6a3.216,3.216,0,0,0-1.481-.265,7.926,7.926,0,0,0-4.312,1.72c-.9.653-.032,2.17.882,1.509Z" fill="#fff"/><path d="M294.392,361.289c1.389-4.7,4.859-6.819,7.854-2.429.981,1.438,1.883,2.813.978,4.494-.925,1.718-.441,1.045-1.94,1.032a10.918,10.918,0,0,1-2.806-.817c-3.857-1.225-13.248-5.249-16.953-2.109-4.823,4.088,1.878,11.58,5.316,13.7,1.635,1.009,3.653,1.979,5.341.512,2.166-1.883.79-5.306.507-7.555-.138-1.1-1.887-1.115-1.747,0a11.37,11.37,0,0,1,.352,2.239c-.238,1.562-2.122,3.417-3.571,3.3-1.389-.117-3.6-2.778-4.388-4.006l-1.1-2.4,2.542-4.826c1.745-.772,5.6.624,7.367,1.07,1.6.4,3.176.9,4.748,1.4,2.282.729,7.234,3.021,8.662-.181,1.369-3.071-2.138-8.382-4.862-9.748-4.344-2.176-6.936,2.326-7.982,5.865a.874.874,0,0,0,1.685.464Z" fill="#fff"/><path d="M301.928,389.46a4.178,4.178,0,0,1,5.24-.14c.913.66,1.786-.855.883-1.509a5.93,5.93,0,0,0-7.359.413c-.851.739.39,1.971,1.236,1.236Z" fill="#fff"/><path d="M271.994,408.34c3.158-3.361,7.2-.3,10.668.2,2.665.382,5.191-.186,7.8-.642,3.884-.678,6.148-.574,9.536,1.047a14.2,14.2,0,0,1,2.369.96q3.435.922-.981,5.236a11.717,11.717,0,0,1-3.907-1.019c-1.051-.4-1.506,1.286-.465,1.685,3.115,1.2,8.925,1.934,9.583-2.839.531-3.85-4.116-4.763-6.682-6.025-4.949-2.433-8.975-.289-14.229-.036-5.01.242-10.726-4.272-14.927.2-.769.819.464,2.057,1.236,1.236Z" fill="#fff"/><path d="M275.656,379.684c.009-.319.069-1.017.324-1.229l3.386.4.528,1.105a32.744,32.744,0,0,1,2.376,4.972c.352.737.718,1.468,1.056,2.21,1.063,2.333,1.639,2.209-.852,3.94-1.167.811-2.873,2.024-3.188-.378-.174-1.322.724-2.524,2.137-2.017,1.06.381,1.517-1.308.465-1.685-4.017-1.442-6.177.854-4.111,4.584,1.756,3.173,7.131,5.62,8.437.674.655-2.481-.878-4.953-1.907-7.105l-2.376-4.972c-.555-1.161-1.114-3.074-2.192-3.922-2.521-1.983-5.752.767-5.831,3.418a.875.875,0,0,0,1.748,0Z" fill="#fff"/></g></svg>