<svg xmlns="http://www.w3.org/2000/svg" xmlns:xlink="http://www.w3.org/1999/xlink" width="280" height="302.367" viewBox="0 0 280 302.367"><defs><clipPath id="a"><rect width="280" height="302.367" transform="translate(54 105)" fill="#343a3f"/></clipPath></defs><g transform="translate(-54 -105)" clip-path="url(#a)"><g transform="translate(54 111.46)"><g transform="translate(0 0)"><path d="M46.743,335.264a41.062,41.062,0,0,0,36.326-22.01,48.62,48.62,0,0,1-14.422-23.078A48.365,48.365,0,0,1,16.123,267a40.967,40.967,0,0,0,30.62,68.266Z" transform="translate(-5.702 -45.817)" fill="#343a3f"/><path d="M22.557,245.48c.49,1.2,1.042,2.383,1.644,3.526a40.839,40.839,0,0,0,45.325,21.049,48.935,48.935,0,0,1-.359-5.681,48.217,48.217,0,0,1,3.03-16.734c.45-1.214.936-2.408,1.477-3.577.531-1.148,1.083-2.281,1.7-3.379a49,49,0,0,1,11.331-13.653A48.685,48.685,0,0,1,42.792,193.1a40.895,40.895,0,0,0-21.544,48.654C21.626,243.027,22.066,244.266,22.557,245.48Z" transform="translate(-8.073 -33.137)" fill="#343a3f"/><path d="M120.778,241.753a48.3,48.3,0,0,1-3.738-9.733l-.04.015q-1.9.614-3.713,1.406A41.269,41.269,0,0,0,93.32,252.027c-.612,1.164-1.169,2.352-1.664,3.577a40.167,40.167,0,0,0-1.376,3.956,40.9,40.9,0,0,0-1.669,11.5c0,1.108.081,2.191.167,3.273.106,1.326.278,2.626.506,3.91q.334,1.889.844,3.713a41,41,0,0,0,10.214,17.771,40.172,40.172,0,0,0,3.076,2.853q1.518,1.267,3.156,2.383a41.008,41.008,0,0,0,64.118-33.908c0-1.138-.081-2.256-.172-3.374a48.025,48.025,0,0,1-49.742-25.925Z" transform="translate(-19.929 -39.815)" fill="#343a3f"/><path d="M54.9,177.658c.258,1.25.582,2.474.946,3.677A40.827,40.827,0,0,0,105.746,209q1.844-.5,3.622-1.158c.091-.035.177-.066.268-.1-.106-1.321-.2-2.646-.2-3.991a48.486,48.486,0,0,1,14.761-34.828,48.248,48.248,0,0,1-8.827-24.048A48.169,48.169,0,0,1,66.547,140a40.683,40.683,0,0,0-12.221,33.9C54.46,175.169,54.643,176.429,54.9,177.658Z" transform="translate(-14.001 -24.025)" fill="#343a3f"/><path d="M183.7,249.994a41.151,41.151,0,0,0,19.217-13.178,48.539,48.539,0,0,1-17.493-37.307c0-1.255.1-2.489.187-3.723a47.747,47.747,0,0,1-31.075-4.614c-1.164-.6-2.286-1.265-3.394-1.953-1.143-.713-2.251-1.477-3.329-2.281a48.793,48.793,0,0,1-5.732-4.972,40.907,40.907,0,0,0-12.025,29c0,.1.015.192.015.288,0,1.042.071,2.064.157,3.086.035.4.055.81.1,1.209.1.86.243,1.7.39,2.55.086.48.152.961.253,1.437.162.769.38,1.518.587,2.271A40.629,40.629,0,0,0,176.3,251.633c1.27-.162,2.524-.369,3.753-.647S182.509,250.378,183.7,249.994Z" transform="translate(-27.042 -31.225)" fill="#343a3f"/><path d="M69.424,116.062Q71,117.329,72.7,118.439a40.771,40.771,0,0,0,42.679,1.29c.076-.81.2-1.6.314-2.393.192-1.355.42-2.691.723-4.007.288-1.255.587-2.5.971-3.723a48.828,48.828,0,0,1,18.747-25.4c0-.035,0-.071,0-.111a41.038,41.038,0,1,0-69.6,29.411C67.461,114.4,68.422,115.258,69.424,116.062Z" transform="translate(-14.001 -7.39)" fill="#343a3f"/><path d="M138.6,105.421c-.1.344-.177.693-.268,1.037a40.355,40.355,0,0,0-.839,4.077c-.061.39-.131.774-.177,1.164-.142,1.158-.223,2.332-.268,3.521-.021.48-.071.956-.071,1.447,0,.035,0,.076,0,.111a40.747,40.747,0,0,0,7.289,23.285c.718,1.037,1.472,2.039,2.276,3q1.229,1.472,2.585,2.823c.375.369.779.7,1.169,1.062a41.294,41.294,0,0,0,7.133,5.266,40.358,40.358,0,0,0,30.7,4.285,48.384,48.384,0,0,1,4.846-12.156c.627-1.1,1.27-2.2,1.978-3.253s1.482-2.044,2.271-3.035a48.779,48.779,0,0,1,21.358-15.4,40.219,40.219,0,0,0-10.927-34.191c.511-1.3,1-2.6,1.563-3.85.536-1.2,1.138-2.357,1.72-3.526,14.923-29.992,44.04-47.956,74.69-60.759,11.857-4.952,6.657-24.54-5.377-19.511-36.2,15.124-68.61,35.566-86.588,69.96-.582,1.113-1.113,2.276-1.664,3.415s-1.143,2.256-1.664,3.435a40.809,40.809,0,0,0-32.6,3.511,43.547,43.547,0,0,0-8.994,6.92A41.085,41.085,0,0,0,138.6,105.421Z" transform="translate(-28.228 -0.001)" fill="#343a3f"/><path d="M220.23,225.595c.966.84,1.973,1.629,3.015,2.377q1.533,1.1,3.166,2.054a41.06,41.06,0,1,0,10.573-75.115,41.363,41.363,0,0,0-4.249,1.331,40.459,40.459,0,0,0-4.806,2.135,41.37,41.37,0,0,0-12.662,10.4c-.794.976-1.553,1.988-2.256,3.035-.718,1.072-1.4,2.18-2.013,3.318a41.519,41.519,0,0,0-3.6,9.262,40.626,40.626,0,0,0,12.828,41.2Z" transform="translate(-40.082 -26.358)" fill="#343a3f"/><path d="M327.422,118.553S296.043,26.289,258.619,72,301.284,136.258,327.422,118.553Z" transform="translate(-47.422 -10.174)" fill="#343a3f"/></g></g></g></svg>